<?xml version="1.0" standalone="no"?>
<!DOCTYPE svg PUBLIC "-//W3C//DTD SVG 20010904//EN"
 "http://www.w3.org/TR/2001/REC-SVG-20010904/DTD/svg10.dtd">
<svg version="1.0" xmlns="http://www.w3.org/2000/svg"
 width="1024.000000pt" height="1024.000000pt" viewBox="0 0 1024.000000 1024.000000"
 preserveAspectRatio="xMidYMid meet">

<g transform="translate(0.000000,1024.000000) scale(0.100000,-0.100000)"
fill="#000000" stroke="none">
<path d="M5001 7810 c-113 -12 -314 -64 -436 -112 -396 -157 -736 -471 -932
-863 -62 -123 -134 -329 -156 -450 -35 -182 -30 -472 9 -660 61 -292 239 -616
376 -686 47 -24 146 -26 191 -3 127 64 164 204 87 326 -165 260 -219 432 -221
693 0 174 12 257 62 410 108 329 355 614 660 762 189 92 339 127 544 126 217
-1 414 -53 600 -160 322 -185 574 -530 641 -879 23 -120 23 -358 0 -477 -48
-250 -176 -487 -366 -678 -220 -221 -459 -327 -790 -350 -184 -13 -220 -22
-274 -70 -74 -65 -96 -167 -55 -254 31 -66 88 -110 183 -141 313 -104 531
-329 592 -614 18 -85 18 -266 -1 -355 -18 -85 -88 -230 -149 -307 -94 -118
-235 -210 -396 -258 -95 -29 -127 -45 -168 -84 -54 -50 -75 -100 -70 -168 5
-72 42 -129 113 -173 46 -28 54 -30 144 -29 206 2 518 132 763 316 308 233
548 601 633 971 32 142 36 227 36 839 l0 618 31 57 c105 199 142 280 177 387
55 171 73 281 78 496 6 223 -12 353 -78 555 -133 405 -413 758 -778 979 -167
101 -433 197 -626 225 -103 15 -328 21 -424 11z"/>
<path d="M4792 6797 c-88 -33 -141 -111 -142 -210 0 -72 18 -108 81 -168 27
-25 49 -53 49 -62 0 -20 -35 -57 -53 -57 -28 0 -108 64 -139 111 -35 54 -42
57 -78 32 -66 -46 -100 -119 -100 -213 0 -44 7 -71 31 -119 l31 -63 -35 -36
c-58 -61 -81 -117 -82 -197 0 -87 35 -167 98 -220 42 -36 117 -65 168 -65 25
0 30 -5 40 -42 29 -110 128 -185 234 -176 78 7 141 48 177 117 l28 53 0 582
c0 544 -2 584 -19 621 -23 49 -64 89 -113 109 -43 19 -129 20 -176 3z m116
-653 c13 -9 22 -26 22 -40 0 -20 -9 -29 -43 -44 -77 -34 -118 -100 -116 -188
2 -61 -4 -72 -40 -72 -75 0 -89 111 -30 228 29 56 43 72 89 99 60 37 85 40
118 17z"/>
<path d="M5397 6795 c-48 -17 -82 -48 -110 -100 -22 -40 -22 -45 -22 -630 l0
-590 22 -42 c52 -96 160 -142 266 -112 72 20 156 120 157 187 0 18 6 22 33 22
101 0 198 63 243 157 23 50 26 66 22 128 -6 84 -34 150 -84 199 l-34 33 31 58
c59 107 37 239 -52 320 -47 42 -64 44 -77 7 -34 -98 -177 -169 -217 -108 -20
31 -11 53 34 75 104 54 139 170 85 279 -56 112 -178 160 -297 117z m137 -649
c79 -33 166 -147 166 -218 0 -26 -30 -68 -48 -68 -21 0 -53 35 -62 70 -13 50
-52 95 -101 120 -46 24 -64 52 -49 79 17 33 44 38 94 17z"/>
<path d="M4755 3916 c-244 -61 -390 -280 -354 -530 13 -97 58 -185 132 -260
73 -74 130 -109 212 -130 342 -90 656 210 584 556 -25 120 -126 260 -231 321
-92 54 -231 71 -343 43z"/>
</g>
</svg>
